PathFileType	4	(X/Y/Z)	D:\Long Term Storage\D'Arcy Smith\Coord16.trc
DataRate	CameraRate	NumFrames	NumMarkers	Units	OrigDataRate	OrigDataStartFrame	OrigNumFrames
120.00	120.00	      97	4	mm	120.00	2423	      4844
Frame#	Time	M1			M2			M3			M4			
		X1	Y1	Z1	X2	Y2	Z2	X3	Y3	Z3	X4	Y4	Z4	

2423	20.183	1084.43274	320.50073	208.55313	1609.38318	311.65656	560.13947							
2424	20.192	1085.90906	322.27869	204.07507	1609.69983	311.18524	558.47015							
2425	20.200	1087.11743	323.69397	200.27081	1609.89417	310.47702	555.87427							
2426	20.208	1088.08960	324.98096	197.02551	1609.90405	309.34729	552.30664							
2427	20.217	1088.91663	326.02203	194.47986	1609.95874	307.96652	548.03577							
2428	20.225	1089.46045	326.75638	192.42456	1610.11914	306.36563	542.85986							
2429	20.233	1089.69653	327.08545	191.25551	1609.91223	304.68192	537.16040							
2430	20.242	1089.76526	327.07220	190.53116	1609.62878	302.79697	530.39838							
2431	20.250	1089.65015	326.70078	190.45421	1609.49048	300.68439	522.69580							
2432	20.258	1089.51379	326.25092	190.93005	1609.11145	298.71002	514.81219							
2433	20.267	1088.65442	324.68338	192.15973	1608.95093	297.48563	506.79214							
2434	20.275	1087.90784	323.11951	193.91734	1608.44946	296.09470	497.92374							
2435	20.283	1086.80420	321.09204	196.27652	1607.89490	294.57281	488.14563							
2436	20.292	1085.67114	318.70688	199.23334	1607.65625	293.08856	478.05630							
2437	20.300	1084.27112	315.81110	202.82111	1607.05359	292.13522	466.93109							
2438	20.308	1082.67493	312.66800	207.03755	1606.62183	291.24097	455.65060							
2439	20.317	1081.00232	309.21036	211.87927	1605.83936	290.66293	443.90717							
2440	20.325	1079.23706	305.35397	217.35852	1605.27917	290.60403	431.82837							
2441	20.333	1077.03845	301.24832	223.56354	1604.49426	290.44421	419.50922							
2442	20.342	1074.94897	296.93674	230.28708	1603.56641	291.04120	405.40845							
2443	20.350	1072.82715	292.54483	237.66573	1602.43384	292.00015	392.35376							
2444	20.358	1070.28381	287.84235	245.74736	1601.99609	293.80365	379.18381							
2445	20.367	1067.80420	283.03989	254.46323	1601.54431	295.51367	365.92636							
2446	20.375	1065.48962	278.43549	263.78494	1600.62585	297.83728	352.57632							
2447	20.383	1062.80383	273.65298	273.77695	1600.67322	299.79327	339.52829							
2448	20.392	1060.19543	269.19464	284.37088	1600.29871	303.32761	326.29425							
2449	20.400	1057.56104	264.81033	295.76422	1599.65283	307.35907	312.45422							
2450	20.408	1054.90698	260.14240	307.34430	1599.11133	311.56152	298.83078							
2451	20.417	1051.77698	256.66772	320.72113	1598.66736	316.30930	286.01364							
2452	20.425	1049.71582	253.14888	333.56473	1598.09778	321.55368	273.01813							
2453	20.433	1046.04529	249.67744	347.55145	1597.62256	327.20554	260.50345							
2454	20.442	1043.12134	246.57240	362.42502	1597.45129	333.28961	248.28014							
2455	20.450	1038.93372	243.46219	377.88235	1597.48926	339.43030	236.73337							
2456	20.458	1037.47253	242.06950	391.87326	1597.22974	345.92654	225.07100							
2457	20.467	1035.05432	241.20003	406.46347	1597.23486	352.83240	214.09746							
2458	20.475	1033.11023	241.15993	420.71628	1597.59668	359.66208	203.71039							
2459	20.483	1030.25525	241.11073	435.59668	1597.95898	366.49832	193.96660							
2460	20.492	1029.85120	242.50476	448.95560	1598.52979	373.45026	184.83978							
2461	20.500	1028.14880	244.13519	462.81628	1599.56799	380.34692	176.11328							
2462	20.508	1026.83984	246.05038	476.59039	1600.25940	387.14047	168.07957							
2463	20.517	1025.40393	248.31943	489.95590	1601.20447	393.85516	160.50397							
2464	20.525	1024.22107	251.33250	502.99667	1602.23425	400.37430	153.44910							
2465	20.533	1022.87109	254.72690	515.92523	1603.00403	406.51102	147.08215							
2466	20.542	1022.19745	258.17599	527.92822	1604.51611	412.44922	141.51451							
2467	20.550	1021.79626	262.87405	537.40521	1605.60632	418.04153	135.89410							
2468	20.558	1021.35236	267.24228	548.05658	1606.92676	423.38351	131.31050							
2469	20.567	1020.94464	272.01489	558.01367	1608.20007	428.24231	127.09035							
2470	20.575	1020.51294	277.48029	567.99780	1609.38562	432.66592	123.06674							
2471	20.583	1020.26184	282.71713	576.74414	1610.69983	436.80753	119.48216							
2472	20.592	1020.53345	287.41150	584.11829	1612.19165	440.38757	116.56813							
2473	20.600	1019.99622	292.90634	595.08380	1613.36902	443.36646	114.07042							
2474	20.608	1019.99170	298.28693	602.06494	1614.78589	445.86179	111.85596							
2475	20.617	1021.15674	303.54376	607.02258	1616.00122	447.81860	110.33377							
2476	20.625	1020.27197	308.43286	613.93610	1617.35132	449.28467	109.14310							
2477	20.633	1020.45642	313.20102	619.41437	1618.48669	450.05536	108.20913							
2478	20.642	1020.49988	317.76913	623.36230	1619.66931	450.32544	107.77653							
2479	20.650	1020.73145	322.22040	627.33813	1620.32886	450.16785	107.66729							
2480	20.658	1020.85596	326.09680	630.58466	1621.43018	449.40561	108.07883							
2481	20.667	1020.95013	329.74448	633.14221	1622.18091	448.01697	108.96429							
2482	20.675	1022.02441	333.09900	633.31927	1622.64917	446.07422	110.03699							
2483	20.683	1021.95929	336.18179	635.40741	1623.06592	443.75363	111.62745							
2484	20.692	1022.07422	338.31464	635.97443	1623.61365	440.75482	113.71435							
2485	20.700	1021.97260	340.46234	636.94916	1623.74255	437.31927	115.93749							
2486	20.708	1021.91461	341.72885	636.86908	1623.84546	433.33057	118.66358							
2487	20.717	1021.86517	342.75845	635.96802	1624.34619	428.46912	122.14035							
2488	20.725	1021.83038	343.45398	634.70764	1623.95288	423.73038	125.50198							
2489	20.733	1021.67554	343.51086	633.17529	1624.32251	417.87613	129.71635							
2490	20.742	1021.46381	343.21750	631.39380	1624.05737	411.90598	134.12271							
2491	20.750	1020.31372	342.45868	630.97681	1623.78430	405.48792	139.06445							
2492	20.758	1020.15778	341.30396	627.62549	1623.45044	398.69763	144.28455							
2493	20.767	1020.75085	340.12640	622.95258	1622.79089	391.52197	150.12674							
2494	20.775	1019.94836	338.26157	619.56940	1621.87976	384.21735	156.35939							
2495	20.783	1021.13519	336.32706	612.79779	1621.15503	376.54758	163.40538							
2496	20.792	1020.08881	333.92935	608.94745	1620.44641	368.55579	171.00191							
2497	20.800	1020.90796	331.68365	601.86792	1620.14478	360.06427	179.19846							
2498	20.808	1021.26660	329.00055	594.92389	1619.12793	351.65176	188.06291							
2499	20.817	1020.62689	325.99548	589.69568	1619.41968	343.03745	197.64943							
2500	20.825	1021.88977	323.18918	580.35406	1617.24670	334.58698	207.37131							
2501	20.833	1021.66345	319.40302	571.93066	1616.55652	326.63577	218.42767							
2502	20.842	1023.03528	316.80917	562.37469	1615.32544	318.70306	229.74286							
2503	20.850	1023.29926	313.80356	553.88934	1613.67993	311.15866	241.96799							
2504	20.858	1023.55206	310.71982	544.95374	1612.77417	304.09189	254.56244							
2505	20.867	1024.29407	307.97400	535.00452	1611.25000	297.38480	267.65332							
2506	20.875	1026.14392	306.22852	521.81018	1609.60535	290.96091	281.25540							
2507	20.883	1026.62610	303.67090	511.10233	1608.70142	285.38892	295.23102							
2508	20.892	1027.55664	302.11560	500.52060	1607.05408	280.38324	309.37430							
2509	20.900	1028.90088	299.25009	489.65637	1606.20618	275.43182	323.60110							
2510	20.908	1030.36011	297.81616	477.42786	1605.34155	271.14084	337.95059							
2511	20.917	1031.85327	296.60632	465.44086	1604.52075	268.26379	352.94711							
2512	20.925	1033.56580	295.73462	452.78326	1603.24585	265.36880	366.51987							
2513	20.933	1035.32458	295.33954	440.05609	1602.49854	264.38745	381.49423							
2514	20.942	1036.50208	295.29062	427.93549	1602.19641	262.84222	395.95547							
2515	20.950	1039.88635	296.21231	413.06006	1601.68518	261.98593	409.01517							
2516	20.958	1041.02893	296.40054	401.44669	1601.56287	262.05988	422.71878							
2517	20.967	1043.48462	298.11676	387.80637	1601.70776	262.83011	435.80380							
2518	20.975	1044.85034	299.27878	376.29004	1602.18433	264.59128	449.46497							
2519	20.983	1046.65149	301.14288	364.32907	1602.76819	266.23230	461.63611							
